<svg width="77" height="77" viewBox="0 0 77 77" fill="none" xmlns="http://www.w3.org/2000/svg">
<path d="M47.4832 44.9167H46.0715C45.5406 44.9176 45.0656 44.5864 44.8832 44.0876C44.7266 43.677 44.5585 43.2753 44.3776 42.8775C44.1526 42.3936 44.2553 41.8208 44.6342 41.4453L45.6403 40.4378C47.134 38.931 47.1313 36.5011 45.6339 34.9978L42.0072 31.3711C40.5021 29.8747 38.0711 29.8747 36.5659 31.3711L35.5598 32.3759C35.1835 32.7534 34.6116 32.8559 34.1276 32.6326C33.7298 32.4517 33.3281 32.2835 32.9161 32.1193C32.4148 31.9382 32.0813 31.4614 32.0832 30.9283V29.5167C32.0832 27.3903 30.3596 25.6667 28.2333 25.6667H23.0999C20.9736 25.6667 19.25 27.3903 19.25 29.5167V30.9283C19.2509 31.4593 18.9197 31.9343 18.4209 32.1167C18.0103 32.2733 17.6086 32.4414 17.2107 32.6223C16.7268 32.8461 16.1547 32.7436 15.7785 32.3657L14.7711 31.3595C13.2661 29.8641 10.8361 29.8641 9.33109 31.3595L5.7044 34.9978C4.20804 36.503 4.20804 38.9339 5.7044 40.4391L6.70925 41.4453C7.08815 41.8208 7.19082 42.3936 6.96592 42.8775C6.78497 43.2753 6.61685 43.677 6.459 44.0889C6.27532 44.5905 5.79584 44.9221 5.26165 44.9167H3.84999C1.72367 44.9167 0 46.6403 0 48.7667V53.9C0 56.0263 1.72367 57.75 3.84999 57.75H5.26165C5.79263 57.749 6.26762 58.0803 6.45002 58.579C6.60658 58.9897 6.7747 59.3914 6.95565 59.7892C7.18055 60.273 7.07789 60.8459 6.69898 61.2214L5.69285 62.2288C4.19745 63.7339 4.19745 66.1639 5.69285 67.6689L9.31954 71.2956C10.8247 72.792 13.2557 72.792 14.7609 71.2956L15.767 70.2907C16.1433 69.9133 16.7152 69.8108 17.1992 70.0341C17.597 70.215 17.9987 70.3831 18.4107 70.5474C18.9145 70.7264 19.2509 71.2037 19.25 71.7383V73.15C19.25 75.2763 20.9736 77 23.0999 77H28.2333C30.3596 77 32.0832 75.2763 32.0832 73.15V71.7383C32.0823 71.2074 32.4135 70.7324 32.9123 70.55C33.3229 70.3934 33.7246 70.2253 34.1225 70.0443C34.6064 69.8206 35.1785 69.9231 35.5547 70.301L36.5621 71.3071C38.0692 72.8001 40.4985 72.7972 42.0021 71.3007L45.6288 67.674C47.1252 66.1688 47.1252 63.7379 45.6288 62.2327L44.6239 61.2266C44.245 60.851 44.1424 60.2782 44.3673 59.7943C44.5482 59.3965 44.7164 58.9948 44.8806 58.5829C45.0617 58.0816 45.5385 57.7481 46.0715 57.75H47.4832C49.6095 57.75 51.3332 56.0263 51.3332 53.9V48.7667C51.3332 46.6403 49.6095 44.9167 47.4832 44.9167ZM48.7665 53.9C48.7665 54.6087 48.1919 55.1833 47.4832 55.1833H46.0715C44.4762 55.1893 43.0485 56.1753 42.4782 57.6653C42.3422 58.0246 42.1951 58.3784 42.0368 58.7266C41.377 60.1832 41.683 61.8958 42.8068 63.0335L43.8103 64.0383C44.3118 64.5392 44.3123 65.3518 43.8113 65.8533C43.811 65.8536 43.8106 65.8539 43.8103 65.8543L40.1836 69.481C39.6825 69.9819 38.8701 69.9819 38.369 69.481L37.3629 68.4761C36.2257 67.3514 34.5124 67.0452 33.056 67.7061C32.7082 67.864 32.354 68.0115 31.9973 68.1476C30.5084 68.7177 29.523 70.1441 29.5166 71.7383V73.15C29.5166 73.8587 28.942 74.4333 28.2333 74.4333H23.0999C22.3912 74.4333 21.8166 73.8587 21.8166 73.15V71.7383C21.8107 70.143 20.8246 68.7153 19.3346 68.145C18.9753 68.009 18.6216 67.8619 18.2733 67.7035C16.8168 67.0441 15.1043 67.3503 13.9665 68.4735L12.9616 69.4771C12.4608 69.9786 11.6481 69.979 11.1467 69.4781C11.1464 69.4777 11.146 69.4774 11.1457 69.4771L7.51903 65.8543C7.01805 65.3531 7.01805 64.5408 7.51903 64.0396L8.52388 63.0335C9.64759 61.8958 9.95367 60.1832 9.29388 58.7266C9.13603 58.3788 8.98844 58.0246 8.85241 57.6679C8.28357 56.1774 6.85683 55.1904 5.26165 55.1833H3.84999C3.14127 55.1833 2.56666 54.6087 2.56666 53.9V48.7667C2.56666 48.0579 3.14127 47.4833 3.84999 47.4833H5.26165C6.85699 47.4774 8.2847 46.4913 8.85498 45.0014C8.99101 44.642 9.13811 44.2883 9.29644 43.9401C9.95623 42.4835 9.65 40.7709 8.52644 39.6332L7.51775 38.6283C7.01629 38.1275 7.0158 37.3148 7.51678 36.8134C7.51711 36.8131 7.51743 36.8127 7.51775 36.8124L11.1444 33.1857C11.6456 32.6847 12.4579 32.6847 12.9591 33.1857L13.9652 34.1906C15.1024 35.3153 16.8156 35.6215 18.2721 34.9606C18.6198 34.8027 18.974 34.6551 19.3308 34.5191C20.8217 33.9507 21.8094 32.5238 21.8166 30.9283V29.5167C21.8166 28.808 22.3912 28.2333 23.0999 28.2333H28.2333C28.942 28.2333 29.5166 28.808 29.5166 29.5167V30.9283C29.5225 32.5237 30.5086 33.9514 31.9985 34.5217C32.3579 34.6577 32.7116 34.8048 33.0599 34.9631C34.5163 35.6241 36.2295 35.3178 37.3667 34.1931L38.3716 33.1896C38.8746 32.692 39.6844 32.692 40.1875 33.1896L43.8142 36.8163C44.3151 37.3174 44.3151 38.1298 43.8142 38.6309L42.8093 39.637C41.6858 40.7747 41.3795 42.4873 42.0393 43.9439C42.1972 44.2917 42.3448 44.6459 42.4808 45.0027C43.0509 46.4915 44.4773 47.4769 46.0715 47.4833H47.4832C48.1919 47.4833 48.7665 48.0579 48.7665 48.7667V53.9Z" fill="black"/>
<path d="M37.1905 50.82C37.1777 50.512 37.1559 50.2053 37.1187 49.8999C37.0776 49.5713 37.0288 49.2454 36.9608 48.9258C36.9159 48.7166 36.8569 48.51 36.8004 48.3021C36.7285 48.0377 36.6477 47.7772 36.5578 47.5206C36.495 47.3422 36.4295 47.1651 36.3628 46.9893C36.1976 46.5783 36.0086 46.1771 35.7968 45.7881C35.7801 45.7585 35.7699 45.7265 35.7532 45.6969C35.4194 45.1028 35.0328 44.5395 34.5982 44.0145C34.561 43.9683 34.5186 43.9247 34.4801 43.8797C34.303 43.6706 34.1208 43.4678 33.9296 43.274C33.8295 43.1701 33.7243 43.0725 33.619 42.9724C33.4907 42.8531 33.3624 42.735 33.234 42.6221C33.0783 42.4868 32.9196 42.3559 32.7579 42.2294L32.5474 42.0728C30.5617 40.5854 28.1472 39.7821 25.6662 39.7833C25.5379 39.7833 25.4096 39.8026 25.2812 39.8077C25.0079 39.8154 24.7333 39.8308 24.4573 39.8591C24.3123 39.8745 24.166 39.8911 24.021 39.9117C23.6026 39.9667 23.1875 40.0443 22.7775 40.144C16.5981 41.7408 12.8831 48.0448 14.4799 54.2242C15.5323 58.2962 18.7136 61.4751 22.7864 62.524C22.807 62.524 22.8288 62.5304 22.8506 62.5356C23.2938 62.6461 23.7428 62.7319 24.1955 62.7922C24.4946 62.8295 24.7936 62.8372 25.0939 62.8513C25.2941 62.8615 25.4789 62.8911 25.688 62.8911C26.0538 62.8911 26.4337 62.8667 26.8212 62.8282C26.8623 62.8282 26.9034 62.8166 26.9496 62.8115C27.2614 62.7768 27.5771 62.7306 27.8992 62.6665C28.0276 62.6421 28.1469 62.61 28.2701 62.5818C28.496 62.5292 28.7206 62.474 28.9516 62.406C29.1312 62.3521 29.3058 62.2892 29.4816 62.2276C29.6574 62.166 29.8396 62.0992 30.0219 62.0299C30.2041 61.9606 30.3568 61.8811 30.5224 61.8041C30.738 61.7053 30.9523 61.6077 31.164 61.4922H31.1717C32.3694 60.851 33.4756 60.0522 34.4609 59.1168C34.727 58.8684 34.9585 58.5851 35.1488 58.2749C36.1504 56.6691 36.8084 54.8733 37.0814 53.0004C37.1174 52.7527 37.1495 52.505 37.1687 52.2522C37.1867 52.0199 37.1995 51.7889 37.2046 51.5579C37.2046 51.4848 37.2149 51.4155 37.2149 51.3423C37.2162 51.1614 37.1982 50.9945 37.1905 50.82ZM34.6329 51.6606C34.6329 51.7671 34.6239 51.8736 34.6175 51.9789C34.5944 52.2894 34.5546 52.6 34.502 52.9118C34.0223 55.5801 32.3657 57.8901 29.9923 59.2002C29.8332 59.2836 29.6766 59.3619 29.5201 59.4338L29.4136 59.4851C28.6679 59.8236 27.8809 60.0618 27.0728 60.1935C27.0163 60.2025 26.9585 60.2127 26.9008 60.2204C26.7404 60.2435 26.5825 60.2628 26.426 60.2769C26.2193 60.2949 26.0114 60.3051 25.7997 60.309C25.7099 60.309 25.6213 60.309 25.5315 60.309C25.2278 60.3055 24.9246 60.2867 24.6229 60.2525L24.4689 60.2346C24.116 60.1884 23.7659 60.1224 23.4204 60.0369C18.614 58.8067 15.715 53.913 16.945 49.1066C17.7579 45.9307 20.2363 43.4497 23.4114 42.6336V42.6323C24.1487 42.4464 24.9059 42.3515 25.6662 42.35C26.0331 42.3521 26.3997 42.377 26.7635 42.4244C26.861 42.436 26.9573 42.454 27.0535 42.4681C27.3307 42.5117 27.6053 42.5669 27.8761 42.6362C27.9647 42.6593 28.0532 42.6798 28.1405 42.7042C28.8229 42.9012 29.4798 43.1778 30.0976 43.5281C30.1964 43.5859 30.2926 43.6462 30.3902 43.7065C30.5929 43.8348 30.7893 43.9632 30.9831 44.1095C31.087 44.1852 31.1922 44.2596 31.2923 44.3405C31.5442 44.5416 31.7853 44.7558 32.0149 44.9821C32.106 45.0745 32.1894 45.1759 32.2779 45.2722C32.4255 45.4326 32.5693 45.5968 32.7066 45.7701C32.8015 45.8894 32.8927 46.0126 32.9825 46.1371C33.1108 46.3219 33.2392 46.5144 33.3547 46.7095C33.4188 46.816 33.483 46.92 33.5484 47.029C33.714 47.3337 33.8614 47.6478 33.9899 47.9697C34.0412 48.0981 34.0849 48.2264 34.1311 48.3547C34.2145 48.5909 34.2864 48.8296 34.3492 49.0708C34.3813 49.1992 34.4173 49.3134 34.4442 49.4379C34.5191 49.7847 34.5735 50.1357 34.6072 50.4889C34.6149 50.5826 34.6149 50.6776 34.6213 50.7712C34.6393 51.0664 34.6444 51.3629 34.6329 51.6606Z" fill="black"/>
<path d="M73.15 26.95H69.1139C68.5757 26.9555 68.0943 26.6165 67.9179 26.1081C67.5199 24.9161 67.0383 23.7534 66.4767 22.629C66.2383 22.1434 66.3376 21.5597 66.7231 21.1801L69.5849 18.3145C71.0871 16.8112 71.0871 14.3751 69.5849 12.8718L64.1282 7.42408C62.6249 5.92194 60.1889 5.92194 58.6856 7.42408L55.8251 10.2834C55.446 10.6687 54.863 10.7685 54.3775 10.531C53.2529 9.96653 52.0899 9.48239 50.8971 9.08215C50.3866 8.90746 50.0453 8.42557 50.0501 7.88609V3.85C50.0501 1.72368 48.3264 0 46.2001 0H38.5001C36.3738 0 34.6501 1.72368 34.6501 3.85V7.88609C34.6556 8.42428 34.3168 8.90569 33.8082 9.08215C32.616 9.48223 31.4533 9.96605 30.3291 10.5298C29.8436 10.7689 29.2595 10.6696 28.8803 10.2834L26.0146 7.42152C24.5096 5.92371 22.077 5.92371 20.572 7.42152L15.1255 12.868C13.6226 14.3714 13.6226 16.8085 15.1255 18.3119L19.3336 22.5276C19.8426 23.0208 20.6551 23.0079 21.1482 22.4988C21.6293 22.0021 21.6304 21.2135 21.1508 20.7156L16.9402 16.5011C16.4392 16 16.4392 15.1876 16.9402 14.6865L22.3866 9.24C22.8877 8.73902 23.7001 8.73902 24.2012 9.24L27.0682 12.1018C28.2282 13.2687 30.0056 13.5603 31.4777 12.8256C32.4943 12.3166 33.5453 11.8797 34.6232 11.5179C36.1789 10.9913 37.2235 9.52859 37.2168 7.88609V3.85C37.2168 3.14128 37.7914 2.56667 38.5001 2.56667H46.2001C46.9088 2.56667 47.4834 3.14128 47.4834 3.85V7.88609C47.4768 9.52827 48.5215 10.9905 50.077 11.5166C51.1553 11.8785 52.2069 12.3158 53.2237 12.8256C54.6962 13.5565 56.4712 13.2645 57.632 12.1006L60.4989 9.24C61.0001 8.73902 61.8124 8.73902 62.3136 9.24L67.76 14.6878C68.2602 15.1887 68.2602 16.0001 67.76 16.5011L64.8982 19.3681C63.7325 20.5287 63.441 22.3053 64.1744 23.7776C64.6834 24.7942 65.1204 25.8452 65.4821 26.9231C66.0084 28.4791 67.4713 29.5237 69.1139 29.5167H73.15C73.8587 29.5167 74.4333 30.0913 74.4333 30.8V38.5C74.4333 39.2087 73.8587 39.7833 73.15 39.7833H69.1139C67.4718 39.7768 66.0096 40.8214 65.4834 42.377C65.1217 43.4553 64.6842 44.5068 64.1744 45.5237C63.4423 46.996 63.7344 48.7717 64.8995 49.9319L67.7613 52.7989C68.2623 53.3001 68.2623 54.1124 67.7613 54.6135L62.3123 60.06C61.8113 60.5602 60.9999 60.5602 60.4989 60.06L56.2819 55.852C55.7888 55.3428 54.9763 55.33 54.4673 55.8231C53.9581 56.3162 53.9453 57.1287 54.4384 57.6377C54.4487 57.6483 54.4593 57.6589 54.4699 57.6692L58.6856 61.8772C60.1889 63.3794 62.6249 63.3794 64.1282 61.8772L69.5747 56.432C71.0776 54.9286 71.0776 52.4916 69.5747 50.9881L66.7167 48.125C66.3317 47.7458 66.2321 47.163 66.469 46.6774C67.0335 45.5529 67.5176 44.3899 67.9179 43.197C68.0926 42.6866 68.5745 42.3452 69.1139 42.35H73.15C75.2763 42.35 77 40.6263 77 38.5V30.8C77 28.6737 75.2763 26.95 73.15 26.95Z" fill="black"/>
<path d="M54.1453 22.8536C47.6263 16.3482 37.0715 16.3482 30.5525 22.8536C30.0602 23.3634 30.0743 24.1759 30.5841 24.6682C31.0814 25.1485 31.8699 25.1485 32.3672 24.6682C37.843 19.1185 46.7809 19.0586 52.3307 24.5345C57.8804 30.0103 57.9403 38.9482 52.4644 44.498C52.4202 44.5429 52.3756 44.5875 52.3307 44.6318C51.8209 45.1243 51.8067 45.9366 52.2992 46.4464C52.7917 46.9562 53.604 46.9704 54.1138 46.4779C54.1244 46.4676 54.135 46.457 54.1453 46.4464C60.6507 39.9274 60.6507 29.3726 54.1453 22.8536Z" fill="black"/>
</svg>
