<svg width="125" height="128" viewBox="0 0 125 128" fill="none" xmlns="http://www.w3.org/2000/svg">
<path d="M123.746 104.667C111.799 93.9678 105.764 81.3223 105.803 67.0811L105.861 46.3518C106.015 30.5481 94.1934 20.0408 84.0226 15.8452C81.1089 14.6428 78.1046 13.7145 75.0507 13.0235L75.0544 11.7005C75.0719 5.34622 69.3217 0.164331 62.2362 0.149273C55.1507 0.134215 49.372 5.2916 49.3544 11.6459L49.3502 13.1694C46.5959 13.8296 43.8873 14.6927 41.2578 15.775C29.9909 20.4022 18.5595 31.5884 18.4165 46.1522L18.3592 66.8952C18.3186 81.6182 12.4858 94.2384 1.02373 104.406C0.341006 105.013 0.0918109 105.909 0.377379 106.732C0.662947 107.556 1.43998 108.166 2.3879 108.315L26.7693 112.145C31.3111 112.857 35.4935 113.443 39.4731 113.926C43.9385 121.818 52.7319 126.893 62.354 126.914C71.9786 126.934 80.8026 121.891 85.3064 114.014C89.2732 113.55 93.4382 112.985 97.9582 112.294L122.358 108.568C123.307 108.425 124.084 107.816 124.377 106.994C124.67 106.174 124.426 105.277 123.746 104.667ZM54.4919 11.6568C54.5024 7.8447 57.9702 4.74981 62.2209 4.75884C66.4717 4.76787 69.9224 7.87747 69.9118 11.6896L69.9107 12.1091C64.7905 11.439 59.5939 11.4556 54.4904 12.1846L54.4919 11.6568ZM62.3667 122.304C55.8595 122.29 49.7869 119.378 45.8962 114.629C51.6386 115.171 56.9989 115.45 62.3574 115.461C67.7364 115.472 73.1161 115.216 78.8846 114.692C74.9651 119.429 68.874 122.318 62.3667 122.304ZM97.0969 107.749C92.163 108.502 87.6406 109.112 83.368 109.592C83.3628 109.592 83.3577 109.592 83.3526 109.591C81.4707 109.802 79.6404 109.985 77.8486 110.142C77.8306 110.144 77.8101 110.144 77.7921 110.147C76.1546 110.291 74.5532 110.405 72.9698 110.505C72.669 110.525 72.3708 110.541 72.0701 110.559C70.6975 110.636 69.3404 110.698 67.991 110.741C67.7134 110.75 67.4358 110.763 67.1582 110.769C63.9609 110.859 60.8075 110.853 57.6133 110.751C57.3306 110.742 57.0428 110.729 56.7601 110.717C55.429 110.668 54.0876 110.603 52.7335 110.52C52.4148 110.501 52.0962 110.482 51.775 110.46C50.2333 110.358 48.6736 110.237 47.078 110.093C47.0215 110.088 46.9676 110.083 46.9136 110.079C45.1356 109.916 43.3191 109.725 41.4513 109.509C41.4436 109.509 41.4359 109.509 41.4282 109.509C37.1428 109.014 32.6085 108.38 27.6556 107.604L7.97532 104.511C18.2406 94.0363 23.4592 81.4079 23.4992 66.9062L23.5564 46.1769C23.6784 33.6506 33.6099 23.9869 43.3947 19.9651C46.3047 18.7705 49.3218 17.8803 52.3895 17.2576C52.4153 17.2531 52.4435 17.2554 52.4692 17.2509C58.8052 15.9875 65.5465 15.9442 71.9502 17.1356C71.9836 17.1425 72.0171 17.1288 72.0505 17.1335C75.4 17.7675 78.6973 18.7241 81.8728 20.033C91.3427 23.9414 100.843 33.5818 100.718 46.3294L100.661 67.0724C100.622 80.9772 106.176 93.919 116.781 104.746L97.0969 107.749Z" fill="black"/>
<path d="M78.6523 26.316C68.7048 22.2131 56.5102 22.1825 46.607 26.2525C40.9594 28.573 31.3725 35.3771 31.2656 46.1656C31.2544 47.4379 32.3926 48.4774 33.8138 48.4897C33.8189 48.4897 33.8241 48.4897 33.8292 48.4897C35.2401 48.4927 36.3943 47.4741 36.4055 46.2042C36.488 37.7296 44.2027 32.3113 48.7465 30.4426C57.317 26.9183 67.8925 26.95 76.4999 30.5016C77.7886 31.0344 79.3166 30.5283 79.9109 29.3725C80.5052 28.2145 79.941 26.8465 78.6523 26.316Z" fill="black"/>
</svg>
